<svg width="42" height="22" viewBox="0 0 42 22" fill="none" xmlns="http://www.w3.org/2000/svg">
<path fill-rule="evenodd" clip-rule="evenodd" d="M0 11C0 10.6759 0.158025 10.3651 0.439312 10.1359C0.720598 9.9067 1.1021 9.77795 1.4999 9.77795H36.8766L27.4362 2.08881C27.1546 1.85934 26.9964 1.54811 26.9964 1.22359C26.9964 0.899077 27.1546 0.587851 27.4362 0.358382C27.7179 0.128914 28.0999 7.64589e-09 28.4982 0C28.8965 -7.64589e-09 29.2785 0.128914 29.5601 0.358382L41.5593 10.1348C41.699 10.2483 41.8098 10.3832 41.8855 10.5316C41.9611 10.6801 42 10.8393 42 11C42 11.1607 41.9611 11.3199 41.8855 11.4684C41.8098 11.6168 41.699 11.7517 41.5593 11.8652L29.5601 21.6416C29.2785 21.8711 28.8965 22 28.4982 22C28.0999 22 27.7179 21.8711 27.4362 21.6416C27.1546 21.4122 26.9964 21.1009 26.9964 20.7764C26.9964 20.4519 27.1546 20.1407 27.4362 19.9112L36.8766 12.2221H1.4999C1.1021 12.2221 0.720598 12.0933 0.439312 11.8641C0.158025 11.6349 0 11.3241 0 11V11Z" fill="#C04AE2"/>
</svg>
