<svg width="22" height="21" viewBox="0 0 22 21" fill="none" xmlns="http://www.w3.org/2000/svg">
<path fill-rule="evenodd" clip-rule="evenodd" d="M6.73866 0.93275C7.76504 0.8855 8.09229 0.875 10.7068 0.875C13.3213 0.875 13.6485 0.886375 14.674 0.93275C15.6995 0.979125 16.3995 1.14275 17.012 1.37988C17.6534 1.62225 18.2353 2.00112 18.7165 2.49112C19.2065 2.9715 19.5845 3.5525 19.826 4.19475C20.064 4.80725 20.2268 5.50725 20.274 6.531C20.3213 7.55913 20.3318 7.88638 20.3318 10.5C20.3318 13.1145 20.3204 13.4417 20.274 14.4681C20.2277 15.4919 20.064 16.1919 19.826 16.8044C19.5845 17.4467 19.2059 18.0287 18.7165 18.5097C18.2353 18.9997 17.6534 19.3778 17.012 19.6193C16.3995 19.8573 15.6995 20.02 14.6758 20.0673C13.6485 20.1145 13.3213 20.125 10.7068 20.125C8.09229 20.125 7.76504 20.1136 6.73866 20.0673C5.71491 20.0209 5.01491 19.8573 4.40241 19.6193C3.76009 19.3777 3.17813 18.9991 2.69704 18.5097C2.20737 18.0291 1.82844 17.4474 1.58666 16.8052C1.34954 16.1927 1.18679 15.4927 1.13954 14.469C1.09229 13.4409 1.08179 13.1136 1.08179 10.5C1.08179 7.8855 1.09316 7.55825 1.13954 6.53275C1.18591 5.50725 1.34954 4.80725 1.58666 4.19475C1.82879 3.55257 2.20802 2.9709 2.69791 2.49025C3.17832 2.00069 3.7597 1.62176 4.40154 1.37988C5.01404 1.14275 5.71404 0.98 6.73779 0.93275H6.73866ZM14.5962 2.66525C13.5812 2.61888 13.2767 2.60925 10.7068 2.60925C8.13691 2.60925 7.83241 2.61888 6.81741 2.66525C5.87854 2.70813 5.36929 2.86475 5.02979 2.99687C4.58091 3.17187 4.25979 3.37925 3.92291 3.71613C3.60358 4.0268 3.35782 4.405 3.20366 4.823C3.07154 5.1625 2.91491 5.67175 2.87204 6.61062C2.82566 7.62562 2.81604 7.93012 2.81604 10.5C2.81604 13.0699 2.82566 13.3744 2.87204 14.3894C2.91491 15.3282 3.07154 15.8375 3.20366 16.177C3.35766 16.5944 3.60354 16.9733 3.92291 17.2839C4.23354 17.6033 4.61241 17.8491 5.02979 18.0031C5.36929 18.1353 5.87854 18.2919 6.81741 18.3348C7.83241 18.3811 8.13604 18.3907 10.7068 18.3907C13.2775 18.3907 13.5812 18.3811 14.5962 18.3348C15.535 18.2919 16.0443 18.1353 16.3838 18.0031C16.8327 17.8281 17.1538 17.6208 17.4907 17.2839C17.81 16.9733 18.0559 16.5944 18.2099 16.177C18.342 15.8375 18.4987 15.3282 18.5415 14.3894C18.5879 13.3744 18.5975 13.0699 18.5975 10.5C18.5975 7.93012 18.5879 7.62562 18.5415 6.61062C18.4987 5.67175 18.342 5.1625 18.2099 4.823C18.0349 4.37413 17.8275 4.053 17.4907 3.71613C17.18 3.39681 16.8018 3.15106 16.3838 2.99687C16.0443 2.86475 15.535 2.70813 14.5962 2.66525V2.66525ZM9.47741 13.4671C10.164 13.7529 10.9285 13.7915 11.6403 13.5763C12.3522 13.361 12.9673 12.9053 13.3804 12.287C13.7936 11.6686 13.9793 10.926 13.9058 10.186C13.8323 9.44592 13.5042 8.75435 12.9774 8.22937C12.6416 7.89379 12.2356 7.63684 11.7886 7.477C11.3416 7.31717 10.8647 7.25844 10.3922 7.30504C9.91978 7.35164 9.46355 7.5024 9.05637 7.74649C8.64919 7.99057 8.30119 8.3219 8.03743 8.71662C7.77367 9.11134 7.6007 9.55963 7.53099 10.0292C7.46127 10.4988 7.49654 10.978 7.63426 11.4323C7.77197 11.8866 8.00871 12.3048 8.32742 12.6566C8.64613 13.0085 9.03888 13.2853 9.47741 13.4671ZM7.20854 7.00175C7.66793 6.54235 8.21332 6.17794 8.81355 5.92932C9.41378 5.68069 10.0571 5.55273 10.7068 5.55273C11.3565 5.55273 11.9998 5.68069 12.6 5.92932C13.2003 6.17794 13.7456 6.54235 14.205 7.00175C14.6644 7.46115 15.0288 8.00653 15.2775 8.60676C15.5261 9.20699 15.6541 9.85031 15.6541 10.5C15.6541 11.1497 15.5261 11.793 15.2775 12.3932C15.0288 12.9935 14.6644 13.5389 14.205 13.9983C13.2772 14.926 12.0189 15.4473 10.7068 15.4473C9.39469 15.4473 8.13633 14.926 7.20854 13.9983C6.28074 13.0705 5.75951 11.8121 5.75951 10.5C5.75951 9.1879 6.28074 7.92954 7.20854 7.00175V7.00175ZM16.7513 6.2895C16.8651 6.18211 16.9563 6.05297 17.0193 5.90973C17.0823 5.76648 17.116 5.61205 17.1183 5.45556C17.1206 5.29908 17.0914 5.14373 17.0326 4.99871C16.9737 4.85369 16.8864 4.72195 16.7758 4.61128C16.6651 4.50062 16.5333 4.41329 16.3883 4.35445C16.2433 4.29562 16.088 4.26648 15.9315 4.26876C15.775 4.27104 15.6206 4.3047 15.4773 4.36773C15.3341 4.43077 15.2049 4.52191 15.0975 4.63575C14.8887 4.85715 14.7743 5.15123 14.7788 5.45556C14.7832 5.7599 14.9061 6.05052 15.1213 6.26574C15.3365 6.48096 15.6271 6.60382 15.9315 6.60826C16.2358 6.6127 16.5299 6.49835 16.7513 6.2895V6.2895Z" fill="#DD4B39"/>
</svg>
