<svg width="22" height="21" viewBox="0 0 22 21" fill="none" xmlns="http://www.w3.org/2000/svg">
<path d="M19.238 5.21515C18.6105 5.48585 17.9276 5.68067 17.2241 5.75655C17.9545 5.32268 18.5014 4.63723 18.7622 3.82882C18.0769 4.23649 17.3262 4.52236 16.5433 4.67374C16.2161 4.32393 15.8203 4.04526 15.3807 3.85508C14.9411 3.66491 14.467 3.56731 13.988 3.56837C12.05 3.56837 10.4914 5.13927 10.4914 7.067C10.4914 7.3377 10.5242 7.60841 10.5776 7.86886C7.67571 7.7171 5.08762 6.33077 3.36702 4.20821C3.0535 4.7437 2.88921 5.35342 2.89124 5.97393C2.89124 7.188 3.50852 8.2585 4.44983 8.88809C3.8951 8.86625 3.35336 8.71377 2.86868 8.44308V8.48614C2.86868 10.1862 4.07043 11.5951 5.67209 11.9191C5.37137 11.9973 5.062 12.0372 4.75129 12.0381C4.52366 12.0381 4.30833 12.0155 4.09094 11.9848C4.53391 13.3711 5.82385 14.378 7.35989 14.4108C6.15813 15.3522 4.65286 15.9059 3.01838 15.9059C2.72512 15.9059 2.45442 15.8956 2.17346 15.8628C3.72385 16.8574 5.5634 17.4316 7.54446 17.4316C13.9757 17.4316 17.4948 12.1037 17.4948 7.47921C17.4948 7.32745 17.4948 7.17569 17.4846 7.02393C18.1655 6.52559 18.7622 5.90831 19.238 5.21515Z" fill="#1DA1F2"/>
</svg>
