<svg width="22" height="21" viewBox="0 0 22 21" fill="none" xmlns="http://www.w3.org/2000/svg">
<g clip-path="url(#clip0_272_8)">
<path d="M21.069 6.10271C21.069 4.25701 19.7114 2.77225 18.0338 2.77225C15.7616 2.66602 13.4442 2.625 11.0759 2.625H10.3377C7.97515 2.625 5.65367 2.66602 3.3814 2.77266C1.70796 2.77266 0.350347 4.26562 0.350347 6.11133C0.247808 7.57107 0.204331 9.03123 0.206792 10.4914C0.202691 11.9515 0.249175 13.4131 0.346246 14.876C0.346246 16.7217 1.70386 18.2187 3.3773 18.2187C5.76441 18.3295 8.21304 18.3787 10.7027 18.3746C13.1964 18.3828 15.6382 18.3308 18.0281 18.2187C19.7056 18.2187 21.0632 16.7217 21.0632 14.876C21.1617 13.4117 21.2068 11.9515 21.2027 10.4873C21.212 9.02713 21.1674 7.56561 21.069 6.10271ZM8.69703 14.515V6.45545L14.6443 10.4832L8.69703 14.515Z" fill="#FF1E00"/>
</g>
<defs>
<clipPath id="clip0_272_8">
<rect width="21" height="21" fill="white" transform="translate(0.206787)"/>
</clipPath>
</defs>
</svg>
