<svg width="26" height="21" viewBox="0 0 26 21" fill="none" xmlns="http://www.w3.org/2000/svg">
<path d="M1 5.07143L11.52 12.21C11.9582 12.5076 12.4732 12.6664 13 12.6664C13.5268 12.6664 14.0418 12.5076 14.48 12.21L25 5.07143M3.66667 20H22.3333C23.0406 20 23.7189 19.714 24.219 19.205C24.719 18.696 25 18.0056 25 17.2857V3.71429C25 2.99441 24.719 2.30402 24.219 1.795C23.7189 1.28597 23.0406 1 22.3333 1H3.66667C2.95942 1 2.28115 1.28597 1.78105 1.795C1.28095 2.30402 1 2.99441 1 3.71429V17.2857C1 18.0056 1.28095 18.696 1.78105 19.205C2.28115 19.714 2.95942 20 3.66667 20Z" stroke="#666666" stroke-width="2" stroke-linecap="round" stroke-linejoin="round"/>
</svg>
